<svg width="54" height="52" viewBox="0 0 54 52" fill="none" xmlns="http://www.w3.org/2000/svg">
<path d="M1.70479e-07 47.6669C-0.000162518 48.2359 0.116117 48.7995 0.342195 49.3253C0.568273 49.8511 0.899719 50.3288 1.3176 50.7312C1.73547 51.1336 2.23159 51.4528 2.77761 51.6705C3.32362 51.8882 3.90883 52.0002 4.49979 52H49.5002C50.0912 52.0002 50.6764 51.8882 51.2224 51.6705C51.7684 51.4528 52.2645 51.1336 52.6824 50.7312C53.1003 50.3288 53.4317 49.8511 53.6578 49.3253C53.8839 48.7995 54.0002 48.2359 54 47.6669V4.33313C54.0002 3.76406 53.8839 3.20052 53.6578 2.67473C53.4317 2.14894 53.1003 1.6712 52.6824 1.2688C52.2645 0.866396 51.7684 0.547226 51.2224 0.329521C50.6764 0.111816 50.0912 -0.000156499 49.5002 1.64165e-07H4.49979C3.90883 -0.000156499 3.32362 0.111816 2.77761 0.329521C2.23159 0.547226 1.73547 0.866396 1.3176 1.2688C0.899719 1.6712 0.568273 2.14894 0.342195 2.67473C0.116117 3.20052 -0.000162518 3.76406 1.70479e-07 4.33313V47.6669ZM28.1256 45.5003V28.1666H23.6258V21.6669H28.1256C28.1256 10.4978 28.6209 9.75015 42.7505 9.75015V16.2499C35.3025 16.2499 35.9996 16.6505 35.9996 21.6669H42.7505V28.1666H35.9996V45.5003H28.1256Z" fill="white"/>
</svg>
