<svg id="Layer_1" data-name="Layer 1" xmlns="http://www.w3.org/2000/svg" xmlns:xlink="http://www.w3.org/1999/xlink" width="1423.47" height="183.95" viewBox="0 0 1423.47 183.95">
  <defs>
    <clipPath id="clip-path" transform="translate(-21.89 -10.12)">
      <rect x="-8.99" y="-13.9" width="1485.23" height="211.4" style="fill: none"/>
    </clipPath>
  </defs>
  <title>SIL New Logo Text</title>
  <g style="clip-path: url(#clip-path)">
    <path d="M1413.16,105q-8.7,8.7-15.25,14.71a83,83,0,0,1-11,8.8q-4.41,2.79-5.9,1.07-.86-.85.43-3.54a49.54,49.54,0,0,1,4-6.55q2.68-3.86,6.66-8.59t8.7-9.66q14.17-15.24,22.12-18.57t9,3.54L1413.16,105m-5.48,8.48a49.85,49.85,0,0,0-6,9.24,25.77,25.77,0,0,0-2.36,7,11.82,11.82,0,0,0,.11,4.83,5.22,5.22,0,0,0,1.61,2.79q1.71,1.72,5.15,1a26.63,26.63,0,0,0,7.52-3.11,68.66,68.66,0,0,0,8.37-5.8q4.29-3.43,8.16-7.09,3.22-3,6.23-6.23t5.37-5.8q1.29-1.5.64-2.36c-.43-.57-.86-.57-1.29,0q-3.22,3.44-6.23,6.55t-6,5.9q-10.52,9.88-17.07,13.42t-8.27,2.68c-.57-.28-.4-1.32.54-3.11a59,59,0,0,1,4.72-7.19q3.33-4.51,8.16-10.52t11.06-12.88q3.65-4.3,8.27-9.45a83.32,83.32,0,0,1,8.48-8.38q.86-.85.32-1.29a1.85,1.85,0,0,0-1.18-.43c-1-.14-2.51-.28-4.51-.43a7,7,0,0,0-5.37,1.93,5.93,5.93,0,0,0-3-4.08,13.94,13.94,0,0,0-8.8-1.5,34.63,34.63,0,0,0-10.2,3.11,60.41,60.41,0,0,0-10.09,6,71.5,71.5,0,0,0-8.26,7q-13.32,13.32-16.11,23t1.72,12.89q3.86,2.79,11.06-1.93t17.72-16.32ZM1385,108a.81.81,0,0,0-1.4.11l-9.88,10.84q-5.59,6.12-11.27,11.49a95.57,95.57,0,0,1-11,9q-5.26,3.65-9.13,3.65c-.72,0-1-.43-.86-1.29a7.51,7.51,0,0,1,.65-2.15,98,98,0,0,1,8.7-14.6q6.33-9.23,14.81-20.08t18.47-22q10-11.16,19.65-20.62c.14-.14.54-.5,1.18-1.07a16.05,16.05,0,0,1,1.61-1.29c1.15-.71,1.46-1.11,1-1.18l-2-.32q-3.65-.43-9.23,3.11a89.4,89.4,0,0,0-11.38,8.7q-5.79,5.16-11.16,10.74t-8.59,9q-12.68,14.17-19,24.16t-8.27,16.43q-1.94,6.44-.75,9.88t3.76,4.29q4.08,1.5,10.09-2.25a82,82,0,0,0,12.35-9.66q6.33-5.91,12-12.35t9.13-10.31c.86-1,1-1.75.54-2.25m-47.56-16a3.49,3.49,0,0,1,.86,3,17,17,0,0,1-1.29,4.51,10.9,10.9,0,0,1-5.58-3.12q-1.72-2,.64-4.4a4.21,4.21,0,0,1,5.37,0m-20.72,34.57q-4,4.3-7.41,7.41a24.92,24.92,0,0,1-6.34,4.4c-1.93.86-3.47.93-4.61.21s-1.43-2.15-.86-4.3a28.75,28.75,0,0,1,3.44-7.41q2.57-4.19,6.33-9.13t7.73-9.45q4-4.51,7.52-8.16a75.23,75.23,0,0,1,5.9-5.58,6.67,6.67,0,0,0,2.58,4.08,17.53,17.53,0,0,0,5.16,2.79q-1.29,2.37-3,4.94t-3.33,4.83q-1.61,2.25-3,4t-2,2.36q-4.08,4.73-8.05,9M1297.63,116a42.09,42.09,0,0,0-4.08,10.84,18.26,18.26,0,0,0,0,8.37,8.21,8.21,0,0,0,3.33,5q3,1.93,7.73,1.18a32.51,32.51,0,0,0,9.88-3.43,52.43,52.43,0,0,0,10.2-7.09,57.34,57.34,0,0,0,8.91-9.77q7.3-10.52,8.59-18.68a37.73,37.73,0,0,0,12.13-1.18,25.08,25.08,0,0,0,10.84-5.69q1.08-1.07,1.72-1.83c.43-.5.22-1-.65-1.61a25.57,25.57,0,0,1-11.7,6.87,36.71,36.71,0,0,1-12.13,1.29,11.19,11.19,0,0,0,.11-2.68c-.07-.93-.18-1.83-.32-2.69a7.93,7.93,0,0,0-2.58-4.61q-1.94-1.61-5.58-1.18,1.71-1.07,3.33-1.93a20,20,0,0,1,2.9-1.29q1.71-.43,1.29-1.07a1.67,1.67,0,0,0-1.5-.64,35.93,35.93,0,0,0-17.82,5.9,78.36,78.36,0,0,0-15.68,13.21,65.71,65.71,0,0,0-8.91,12.67m-57,45a134.76,134.76,0,0,1-19.11,17,75.45,75.45,0,0,1-19,10.09,60.64,60.64,0,0,1-20.08,3.33,39.39,39.39,0,0,1-12.78-2.79,26.91,26.91,0,0,1-10.42-8.16,18.78,18.78,0,0,1-4.19-11.6,17.19,17.19,0,0,1,4.19-11.6q2.15-2.37.75-2.15a4.35,4.35,0,0,0-2.47,1.29q-5.58,5.8-5.15,12.89a22.6,22.6,0,0,0,4.72,12.67,28.57,28.57,0,0,0,12.13,9.34,39.84,39.84,0,0,0,15.57,2.79,69.3,69.3,0,0,0,17.39-2.58,100,100,0,0,0,17.39-6.55,108.1,108.1,0,0,0,21-13.85,196.47,196.47,0,0,0,18.47-17.61q8.58-9.34,16-19.11t13.53-18.57q6.12-8.81,11.17-15.79a78.68,78.68,0,0,1,9.13-10.84c.86,0,1.32-.28,1.4-.86s-.47-.93-1.61-1.07a7.23,7.23,0,0,0-2.47,0q-1.4.22-2.26.43-5.58.86-13.31,10.52l-10.42,10.42q-6.34,6.34-12.78,12.35t-11.92,10.31q-5.48,4.3-8.05,4.3c-.86,0-1.22-.39-1.07-1.18a7.48,7.48,0,0,1,.64-2q1.93-3.22,6.44-9.55t10.2-13.31q5.69-7,11.71-13.21a57.44,57.44,0,0,1,11-9.24c1-.57,1.29-1,.86-1.29a3.53,3.53,0,0,0-1.93-.43,27.41,27.41,0,0,0-7.52.54A25.11,25.11,0,0,0,1270,89.6a71.15,71.15,0,0,0-6.44,5.37,108.82,108.82,0,0,0-7.51,7.95,74,74,0,0,0-9.88,14.28,37,37,0,0,0-3.65,10.52q-.64,4.41.43,6.77a6,6,0,0,0,2.36,3q2.15,1.08,6.12-1.07a64.7,64.7,0,0,0,8.8-5.9q4.83-3.75,10.09-8.7t10-9.88q-3.86,5.15-8.59,11.49T1261,137.27q-10.74,13.53-20.4,23.73m-.43-69a3.5,3.5,0,0,1,.86,3,17.15,17.15,0,0,1-1.29,4.51,10.9,10.9,0,0,1-5.58-3.12q-1.72-2,.64-4.4a4.21,4.21,0,0,1,5.37,0m-20.72,34.57q-4,4.3-7.41,7.41a24.92,24.92,0,0,1-6.34,4.4c-1.93.86-3.47.93-4.61.21s-1.43-2.15-.86-4.3a28.75,28.75,0,0,1,3.44-7.41q2.57-4.19,6.33-9.13t7.73-9.45q4-4.51,7.52-8.16a75.23,75.23,0,0,1,5.9-5.58,6.67,6.67,0,0,0,2.58,4.08,17.53,17.53,0,0,0,5.16,2.79q-1.29,2.37-3,4.94t-3.33,4.83q-1.61,2.25-3,4t-2,2.36q-4.08,4.73-8.05,9M1200.35,116a42.1,42.1,0,0,0-4.08,10.84,18.26,18.26,0,0,0,0,8.37,8.21,8.21,0,0,0,3.33,5q3,1.93,7.73,1.18a32.51,32.51,0,0,0,9.88-3.43,52.44,52.44,0,0,0,10.2-7.09,57.51,57.51,0,0,0,8.91-9.77q7.3-10.52,8.59-18.68A37.73,37.73,0,0,0,1257,101.3a25.08,25.08,0,0,0,10.84-5.69q1.08-1.07,1.72-1.83c.43-.5.22-1-.64-1.61a25.55,25.55,0,0,1-11.7,6.87,36.71,36.71,0,0,1-12.13,1.29,11.19,11.19,0,0,0,.11-2.68c-.07-.93-.18-1.83-.32-2.69a7.93,7.93,0,0,0-2.58-4.61q-1.93-1.61-5.58-1.18,1.71-1.07,3.33-1.93a20,20,0,0,1,2.9-1.29q1.71-.43,1.29-1.07a1.67,1.67,0,0,0-1.5-.64,35.93,35.93,0,0,0-17.82,5.9,78.36,78.36,0,0,0-15.68,13.21,65.71,65.71,0,0,0-8.91,12.67m-99.1,24.37q-2.79-1-3-2.9c-.14-.86.54-1.29,2-1.29a27.67,27.67,0,0,1,5.69.75,70,70,0,0,1,7.51,2.15q4.08,1.4,7.95,2.68c-2.44.29-4.87.46-7.3.54a36.08,36.08,0,0,1-7.3-.54,31.49,31.49,0,0,1-5.58-1.4m191.33-122a17.22,17.22,0,0,1,6.44,4,14.43,14.43,0,0,1,3.65,6.12,14.59,14.59,0,0,1,0,7.84c0,.29.57.14,1.72-.43s1.79-1.86,1.93-3.87a13,13,0,0,0-1.83-7.73,18.62,18.62,0,0,0-5.37-5.48,22.34,22.34,0,0,0-7.3-3.22,33,33,0,0,0-7.84-1,44,44,0,0,0-16.54,3.76,81.14,81.14,0,0,0-16.1,9.45,139.59,139.59,0,0,0-15.46,13.42q-7.52,7.52-14.6,15.57t-13.64,15.89q-6.55,7.84-12.35,14.5-10.09,11.17-18.57,19.43t-15.89,14.28a140.07,140.07,0,0,1-14,10.09,116.89,116.89,0,0,1-12.56,6.87,20.51,20.51,0,0,1-3.33,1.51q-1.83.64-4.19,1.29-5.16-2.14-11-4.08a59.78,59.78,0,0,0-10.31-2.58q-8.81-1.07-9.23,2.36a4.71,4.71,0,0,0,1.4,4.08q1.82,2.15,6.76,3.43a35.69,35.69,0,0,0,10.74,1,85.69,85.69,0,0,0,11.17-1.4l4.08,1.72q7.73,3.22,14.07,6.23t12.56,5.8q6.23,2.78,12.89,5.37a138.82,138.82,0,0,0,14.81,4.72,77.39,77.39,0,0,0,13,2.47,69.61,69.61,0,0,0,13.31.22,35.82,35.82,0,0,0,11.27-2.69,13.9,13.9,0,0,0,7.08-6.23c.57-.86.61-1.47.11-1.83s-1-.11-1.61.75q-3.65,6.23-14.17,7.19t-27.27-3.33a170.25,170.25,0,0,1-23.73-8.16q-12.13-5.16-26.95-11.38l-4.51-1.93,1.93-.43a113.4,113.4,0,0,0,31.46-13.85,189.14,189.14,0,0,0,30-24.16,137.93,137.93,0,0,0,13.53-15.46q6.87-9,14-18.68t14.39-19.11a160.33,160.33,0,0,1,15-17,78.37,78.37,0,0,1,15.89-12.13A33.65,33.65,0,0,1,1284.21,17a24.5,24.5,0,0,1,8.37,1.4M1107.38,80a11.81,11.81,0,0,0-4.62-1.18q-7.09,0-11.27,3.54a24.28,24.28,0,0,0-6.55,8.91,58,58,0,0,0-3.65,11.49q-1.29,6.12-2.79,11.27-3.65,12.89-9.55,17.93t-10.42,3.12a9,9,0,0,1-4.61-4.94q-1.61-3.65,1.18-9.45a25.82,25.82,0,0,1,5.48-5.9,81.85,81.85,0,0,0,8.7-8.7q1.71-2.15.86-2.79t-2.79,0a17.32,17.32,0,0,0-7,4.72,36.77,36.77,0,0,0-6.33,9.24q-3.65,7.09-2.68,11.81a10.52,10.52,0,0,0,4.61,7.09,12,12,0,0,0,5.91,1.83,22.23,22.23,0,0,0,7.73-.75,26.67,26.67,0,0,0,7.95-3.76,24.24,24.24,0,0,0,6.76-7,38.14,38.14,0,0,0,5.48-13.53q1.61-7.73,2.9-14.82a65.89,65.89,0,0,1,3.22-12q1.94-4.94,6.87-5.15,4.29,0,5.15,2.9t-4.08,7.84q-1.08.86,1.29.86a4.08,4.08,0,0,0,3.11-.86,7.4,7.4,0,0,0,2.15-2.58,7.32,7.32,0,0,0,.75-3.33,5.59,5.59,0,0,0-1.07-3.33,6.5,6.5,0,0,0-2.68-2.47m-76.87,60.45a76.74,76.74,0,0,0,12.56-9q6.44-5.58,12.35-11.7t9.34-10q1.29-1.71.32-2.15a1.22,1.22,0,0,0-1.61.43q-3.22,3.44-8.59,9t-11.27,10.84a113.4,113.4,0,0,1-11.6,9.13q-5.69,3.86-9.56,3.87c-.72,0-.93-.54-.64-1.61a15.49,15.49,0,0,1,1.5-3.54q2.14-3.43,6-9t8.59-11.81q4.72-6.23,9.88-12.35t9.66-10.84q1.07-1.07,2.15-2.25t-1.07-1.18a30.87,30.87,0,0,0-7,.64,16.94,16.94,0,0,0-6.33,3.65,92.15,92.15,0,0,0-15,15.68,108.81,108.81,0,0,1-9.24,9.77,107.12,107.12,0,0,1-9.45,7.95,49.92,49.92,0,0,1-8.16,5q-3.65,1.72-5.59.64-.86-.43.86-3.43t4.72-7.41q3-4.39,7.08-9.45t7.95-9.55q6.23-7.09,10.74-11.27t5.15-4.4q1.29-.43,1.29-1.29c0-.57-.43-.86-1.29-.86a30.64,30.64,0,0,0-5.15,0,19.08,19.08,0,0,0-3.65.86,18.14,18.14,0,0,0-4.41,2.36,58,58,0,0,0-4.94,3.87q-2.47,2.15-4.62,4.29T1008.06,99a74,74,0,0,0-10.2,13.53,40.09,40.09,0,0,0-4.3,10.41,15.07,15.07,0,0,0-.22,7.09q.75,2.69,2.47,3.33a9.68,9.68,0,0,0,6.23.11,28,28,0,0,0,7.09-3.22,60,60,0,0,0,7.3-5.37q3.65-3.11,7.08-6.55a47.77,47.77,0,0,0-5.37,11.16,24.48,24.48,0,0,0-1.18,7.3,6.76,6.76,0,0,0,1.29,4.19,4.28,4.28,0,0,0,2.25,1.61q3.86,1.29,10-2.14m-14.6-70.11a5,5,0,0,0-2.47-2.69,5.91,5.91,0,0,0-4.51-.32,5.5,5.5,0,0,0-3.22,3.12,5,5,0,0,0-.32,4.19q.75,2.26,3.76,2.69a4.24,4.24,0,0,0,4.08-.43,6,6,0,0,0,2.79-3.65,4.56,4.56,0,0,0-.11-2.9M1004,107.53a1,1,0,0,0-1.5.32q-4.51,4.94-9.45,10a127.84,127.84,0,0,1-9.88,9.13,62.12,62.12,0,0,1-9.66,6.66,18.58,18.58,0,0,1-8.8,2.58c-.72,0-1-.39-.86-1.18a7.48,7.48,0,0,1,.64-2,111,111,0,0,1,6.34-9.77q4.18-5.9,9-12.13t9.56-11.81q4.72-5.58,7.95-8.8.64-.64,1.39-1.29t1.18-1.07a.7.7,0,0,0,.21-.86q-.22-.43-1.5-.64a11.35,11.35,0,0,0-6.55,1.4,40.47,40.47,0,0,0-7.62,4.94,80,80,0,0,0-7.3,6.66,74.88,74.88,0,0,0-5.58,6.33,76.61,76.61,0,0,0-8.27,12.89,36.36,36.36,0,0,0-3.33,9.55,11.14,11.14,0,0,0,.43,6.34,5.26,5.26,0,0,0,2.79,3q4.08,1.5,9.55-1.29A67,67,0,0,0,984,129a110.41,110.41,0,0,0,11-10q5.16-5.36,8.59-9.23c.86-1.14,1-1.9.43-2.25M950.3,146.07q0-.86-1.93,0a10.09,10.09,0,0,1-3.33.32,8.34,8.34,0,0,1-3.43-1,6.25,6.25,0,0,1-2.58-2.68,8.93,8.93,0,0,1-.75-4.83q.21-3,2.9-8.37a105.5,105.5,0,0,1,7.41-12.24q4.72-6.87,10.84-14.6T972.63,87a51.19,51.19,0,0,0,7.95.22q3.22-.21,3.22-1.72c0-.43-.14-.64-.43-.64q-2.15.22-4.3.32a31.37,31.37,0,0,1-4.51-.11q4.29-4.72,8.7-9.23T992.18,67L993.25,66a7.76,7.76,0,0,1,.86-.75,5.69,5.69,0,0,1,.86-.54q1.07-.64,1.18-1.18c.07-.36-.39-.54-1.4-.54a15.1,15.1,0,0,0-6,1.29,37.38,37.38,0,0,0-7.3,4.51q-3.65,2.79-8.27,6.66t-9.55,8.81a47.84,47.84,0,0,0-5.37-.11,21.27,21.27,0,0,0-4.08.54q-3.22,1.08-2.79,3.43a6.35,6.35,0,0,1,3.76-1.39,53.67,53.67,0,0,1,6.34-.32,116.67,116.67,0,0,0-9.66,11q-10.1,12.67-15.14,23t-2,19.11a17.34,17.34,0,0,0,1.4,3.33,10.75,10.75,0,0,0,12.13,5.48q2.15-.43,2.15-2.15m-34-41.12q-8.7,8.7-15.25,14.71a83,83,0,0,1-11,8.8q-4.4,2.79-5.9,1.07-.86-.85.43-3.54a49.91,49.91,0,0,1,4-6.55q2.68-3.86,6.66-8.59t8.7-9.66Q918.09,85.95,926,82.62t9,3.54L916.27,105m-5.48,8.48a49.63,49.63,0,0,0-6,9.24,25.67,25.67,0,0,0-2.36,7,11.76,11.76,0,0,0,.11,4.83,5.22,5.22,0,0,0,1.61,2.79q1.71,1.72,5.15,1a26.59,26.59,0,0,0,7.52-3.11,68.4,68.4,0,0,0,8.37-5.8q4.29-3.43,8.16-7.09,3.22-3,6.23-6.23t5.37-5.8q1.29-1.5.64-2.36t-1.29,0q-3.22,3.44-6.23,6.55t-6,5.9q-10.52,9.88-17.07,13.42t-8.27,2.68q-.86-.43.54-3.11A58.16,58.16,0,0,1,912,126.1q3.32-4.51,8.16-10.52t11.06-12.88q3.65-4.3,8.27-9.45a83,83,0,0,1,8.48-8.38q.85-.85.32-1.29a1.85,1.85,0,0,0-1.18-.43q-1.5-.21-4.51-.43a7,7,0,0,0-5.37,1.93,5.93,5.93,0,0,0-3-4.08,14,14,0,0,0-8.81-1.5,34.63,34.63,0,0,0-10.2,3.11,60.38,60.38,0,0,0-10.09,6,71.26,71.26,0,0,0-8.27,7q-13.32,13.32-16.1,23T882.44,131q3.86,2.79,11.06-1.93t17.71-16.32ZM857.32,89.6q1.29-1.5,1.93-2.15,1.93-1.93-.65-1.93a24.09,24.09,0,0,0-2.79.22,8.4,8.4,0,0,0-2.58.64,48.53,48.53,0,0,0-9.77,8.26q-5.69,5.91-10.63,12.13-10.52,12.88-14.07,21.47t.75,14c.14.57.39.86.75.86s.68-.29,1-.86a45.38,45.38,0,0,1,5-9.66q3.76-5.8,8.48-12t9.34-11.81q4.62-5.58,7.62-9,7.51-8.8,13.85-13t8.27-3.33q1.29.65.75,2.9A17.87,17.87,0,0,1,872,91.64a68.92,68.92,0,0,1-5.15,6.77q-3.11,3.65-6.55,7.08a56.61,56.61,0,0,0-8.7,10.2,31.08,31.08,0,0,0-3.87,8.27,13.33,13.33,0,0,0-.43,6.12,7.07,7.07,0,0,0,1.61,3.54,5.79,5.79,0,0,0,4.94,2.79,14.43,14.43,0,0,0,6.55-1.83,44.26,44.26,0,0,0,7.41-4.94q3.86-3.11,7.41-6.55t6.66-6.77q3.11-3.32,5-5.48c.86-1.14,1-1.93.54-2.36s-1-.36-1.4.21q-3.22,3.22-7.41,7.73a119.73,119.73,0,0,1-8.7,8.48,60.48,60.48,0,0,1-9,6.66,16.57,16.57,0,0,1-8.37,2.68q-1.72-.64-.11-3.54a40.82,40.82,0,0,1,4.62-6.44q3-3.55,6.33-6.87t4.62-4.83q2.79-2.79,6-6.55a38.57,38.57,0,0,0,5.26-7.84,16.85,16.85,0,0,0,1.93-8.05,9.85,9.85,0,0,0-3.76-7.19,6.14,6.14,0,0,0-6.12-1.4,24.48,24.48,0,0,0-7.08,3.33,47.73,47.73,0,0,0-6.66,5.37q-3.11,3-4.61,4.51,3-3.65,4.3-5.15m-70,52.82a214.61,214.61,0,0,1-26,26.2q-12.45,10.31-23.94,15.14a52.79,52.79,0,0,1-22.65,4.4,38.39,38.39,0,0,1-13.74-3,29,29,0,0,1-11.38-8.59,17.8,17.8,0,0,1,0-23.19,4.08,4.08,0,0,0,1.07-1.72.38.38,0,0,0-.43-.43,2.63,2.63,0,0,0-1.18.43,5.53,5.53,0,0,0-1.18.86q-5.58,5.79-5.26,12.88a22,22,0,0,0,4.62,12.67,30.52,30.52,0,0,0,12.67,9.45,43.27,43.27,0,0,0,16.21,3,73.66,73.66,0,0,0,18-2.36,92,92,0,0,0,17.72-6.44,114.91,114.91,0,0,0,29.74-21.26,242.9,242.9,0,0,0,23.08-26.31q10.09-13.42,17.61-25.34A138.37,138.37,0,0,1,836.07,90a4.07,4.07,0,0,0,1.29-1.61c.28-.64-.29-1-1.72-1a32.68,32.68,0,0,0-3.76.21A4.73,4.73,0,0,0,829,89a3.33,3.33,0,0,0-1.61-3.22A10.43,10.43,0,0,0,823.61,84a22.77,22.77,0,0,0-9.34-.21,33.08,33.08,0,0,0-9.56,3.33,59.9,59.9,0,0,0-9.23,6,67,67,0,0,0-8.37,7.84,43,43,0,0,0-6.34,8.7,48.21,48.21,0,0,0-4.08,9.45,23.2,23.2,0,0,0-1.07,8.59,8.46,8.46,0,0,0,2.9,6.12q2.15,1.72,5.69.22a35,35,0,0,0,8.37-5.59,135.91,135.91,0,0,0,10.74-10.31q5.91-6.23,13-13.74-15.46,22.12-29,38m39.51-52.18q-3,3.22-7.41,7.84t-9.24,9.66q-4.83,5-9.77,9.88T791.29,126a65.73,65.73,0,0,1-7.08,5.37q-2.9,1.83-3.76.75-1.08-1.29.54-4.72a65.58,65.58,0,0,1,4.4-7.73q2.79-4.29,6.23-8.7t6.23-7.62q1.72-1.93,5-5.26a70.58,70.58,0,0,1,7.3-6.34A39,39,0,0,1,818.13,87q4-1.71,7-.43c1.29.57,1.86,1.79,1.72,3.65M683.6,145.32a26.33,26.33,0,0,1-10.31-3,17.08,17.08,0,0,1-6.87-6.66q-2.36-4.18-.86-10.2a11.33,11.33,0,0,1,1.18-2.47,13.38,13.38,0,0,0,1.18-2.25,5.1,5.1,0,0,0-2.58.75,4.91,4.91,0,0,0-1.93,3.12,15.34,15.34,0,0,0-.32,8.91,17.08,17.08,0,0,0,4.19,7.09,21.51,21.51,0,0,0,7.52,4.94,29.76,29.76,0,0,0,10.09,2,76.66,76.66,0,0,0,28.77-3.65,116.09,116.09,0,0,0,25-11.7,133.59,133.59,0,0,0,20.72-15.89,213.74,213.74,0,0,0,15.68-16.21,224.71,224.71,0,0,0,16-20.72q7.41-10.84,15-21.58t16-20.83A144.35,144.35,0,0,1,840.79,18.3q3.65.22,6.44.11a26.8,26.8,0,0,0,4.72-.54,31.63,31.63,0,0,0,9-2.58,1.87,1.87,0,0,0,.86-1.5,2.46,2.46,0,0,0-.65-1.61,13.06,13.06,0,0,0-1.4-1.39,2.22,2.22,0,0,0-1.4-.64,20.9,20.9,0,0,0-8.05,1.61A65.75,65.75,0,0,0,841,15.94a195,195,0,0,0-20.4.21,132.07,132.07,0,0,0-20.08,2.79,85.59,85.59,0,0,0-18.36,6.23,53.56,53.56,0,0,0-15,10.52,43.5,43.5,0,0,0-4.08,4.94,39.48,39.48,0,0,0-4.08,7,24.89,24.89,0,0,0-2.14,7.73,12.05,12.05,0,0,0,1.5,7.41q.85,1.5,3.65,1.5A9.86,9.86,0,0,1,759.51,58a19.88,19.88,0,0,1,1.07-7,28.47,28.47,0,0,1,3.22-6.66A33,33,0,0,1,768,39.13a50.11,50.11,0,0,1,14.92-10.52,99.56,99.56,0,0,1,18.15-6.44,124.41,124.41,0,0,1,18.79-3.22,145.18,145.18,0,0,1,17.07-.64,147.63,147.63,0,0,0-20.62,18.47q-10.52,11.17-21.58,24T772.08,87.13a320.8,320.8,0,0,1-24.05,25,195.64,195.64,0,0,1-25.66,20.29,86.57,86.57,0,0,1-27.59,12.13,34.15,34.15,0,0,1-11.17.75m-41.76-13.21a3.78,3.78,0,0,0-2.9-1.29,4.73,4.73,0,0,0-3.33,1.29,6,6,0,0,0-1.83,3.22,3.54,3.54,0,0,0,.64,3.22,3.94,3.94,0,0,0,3.22,1.29,4.48,4.48,0,0,0,3.11-1.29,6.07,6.07,0,0,0,1.83-3.22,3.4,3.4,0,0,0-.75-3.22m-17.28,14c0-.57-.64-.57-1.93,0a10.06,10.06,0,0,1-3.33.32,8.36,8.36,0,0,1-3.44-1,6.25,6.25,0,0,1-2.58-2.68,8.93,8.93,0,0,1-.75-4.83q.21-3,2.9-8.37a105.1,105.1,0,0,1,7.41-12.24q4.72-6.87,10.84-14.6T646.89,87a51.18,51.18,0,0,0,7.95.22q3.22-.21,3.22-1.72c0-.43-.14-.64-.43-.64q-2.15.22-4.3.32a31.39,31.39,0,0,1-4.51-.11q4.29-4.72,8.7-9.23T666.43,67L667.5,66a8.05,8.05,0,0,1,.86-.75,5.68,5.68,0,0,1,.86-.54c.72-.43,1.11-.82,1.18-1.18S670,63,669,63a15.12,15.12,0,0,0-6,1.29,37.38,37.38,0,0,0-7.3,4.51q-3.65,2.79-8.27,6.66t-9.55,8.81a47.83,47.83,0,0,0-5.37-.11,21.31,21.31,0,0,0-4.08.54q-3.22,1.08-2.79,3.43a6.36,6.36,0,0,1,3.76-1.39,53.61,53.61,0,0,1,6.33-.32,117.65,117.65,0,0,0-9.66,11Q616,110,610.92,120.3t-2,19.11a17.34,17.34,0,0,0,1.4,3.33,10.75,10.75,0,0,0,12.13,5.48q2.15-.43,2.15-2.15m-84.6,5.15a84.21,84.21,0,0,0,18.25-4.83,96.2,96.2,0,0,0,18.36-9.55A94.6,94.6,0,0,0,593.85,122a143.08,143.08,0,0,0,17.29-22.66A249.1,249.1,0,0,0,623.27,77q5.16-10.84,9.23-20.62A131.62,131.62,0,0,1,641.2,39a48.7,48.7,0,0,1,10.63-12.56,31.26,31.26,0,0,1,15-6.44,21.6,21.6,0,0,1,11.92,1.07,13.09,13.09,0,0,1,7,6,10.24,10.24,0,0,1,.11,8.59q-1.83,4.72-8.7,9c-.29.29,0,.5.75.64a10.72,10.72,0,0,0,1.61.21,10,10,0,0,0,5.58-2,13.2,13.2,0,0,0,3.76-4.62,13.48,13.48,0,0,0,1.39-6.12,12.61,12.61,0,0,0-1.72-6.33,17.23,17.23,0,0,0-8.05-7.3q-5.7-2.79-14.5-1.51a36.56,36.56,0,0,0-20.4,10.2,115.53,115.53,0,0,0-16.75,20.83Q620.9,61,612.64,75.42a241.09,241.09,0,0,1-18.79,27.92Q581.18,119.66,571,128.89a107,107,0,0,1-18.36,13.85,45.48,45.48,0,0,1-14.92,5.69,65.17,65.17,0,0,1-12.56.86,36.41,36.41,0,0,1-13.64-2.79,37.34,37.34,0,0,1-10.09-6.33,30.67,30.67,0,0,1-6.66-8.37,24.15,24.15,0,0,1-2.9-9.13,24.84,24.84,0,0,1,.65-10.84,22.8,22.8,0,0,1,4.72-8.7,23.89,23.89,0,0,1,7.73-5.8,28,28,0,0,1,9.88-2.58c1.57.29,2.22,0,1.93-.75s-1.43-1.18-3.44-1.18a26.6,26.6,0,0,0-18.79,9.66,25.68,25.68,0,0,0-4.83,9.45,26.6,26.6,0,0,0-.64,11.17,28.71,28.71,0,0,0,3.86,11.16,33.07,33.07,0,0,0,7.52,8.59,38.36,38.36,0,0,0,10.31,5.9,46.33,46.33,0,0,0,12.24,2.9,68.18,68.18,0,0,0,17-.43m-67.64-46.7q6.44-8.7,13.1-17.07,4.51,0,8.06-.32T497,85.52c0-.43-.14-.64-.43-.64a25.89,25.89,0,0,1-4.72.43h-4.72Q495.29,75,503.87,65.87A130.55,130.55,0,0,1,521.7,50a84.31,84.31,0,0,1,19.11-10.63,56.07,56.07,0,0,1,20.62-3.86,40.3,40.3,0,0,1,8.05.86,36.15,36.15,0,0,1,7.73,2.47,20.29,20.29,0,0,1,6,4.08,9.74,9.74,0,0,1,2.9,5.69,1.87,1.87,0,0,0,1.07,1.83q1.07.54.86-1.83a10.84,10.84,0,0,0-2.79-6.44,20.42,20.42,0,0,0-6.87-5A41.34,41.34,0,0,0,568.51,34a54.37,54.37,0,0,0-12-.86,73,73,0,0,0-23.3,5,98,98,0,0,0-20.94,11.49,141.8,141.8,0,0,0-18.79,16.21Q484.55,75,476.6,84.66h-4.08a23.34,23.34,0,0,0-3.87.32,8.31,8.31,0,0,0-3.11,1.07,2,2,0,0,0-.75,2.47,7.18,7.18,0,0,1,2.68-1,25.2,25.2,0,0,1,5.69-.54h1.5l-6.34,8.06q-3.11,4-6.12,7.84-11.82,15.68-24.37,31.24a202.1,202.1,0,0,1-27,27.7,127.14,127.14,0,0,1-30.71,19.33,74.22,74.22,0,0,1-35.43,5.9,37.88,37.88,0,0,1-12.45-2.79,29.41,29.41,0,0,1-9.13-5.8,17,17,0,0,1-4.72-7.62,12.1,12.1,0,0,1,.75-8.48c.14-.43,0-.68-.43-.75a1.65,1.65,0,0,0-1.4.64,7,7,0,0,0-1.4,2.58,11.2,11.2,0,0,0-.21,5q.64,6.22,7.41,11.7t17.93,7.19a88.9,88.9,0,0,0,34-1.83,110.47,110.47,0,0,0,31.24-13.42A158.21,158.21,0,0,0,434.51,151a257.27,257.27,0,0,0,24.91-29q6.44-8.81,12.88-17.5M445.47,92a3.5,3.5,0,0,1,.86,3A17,17,0,0,1,445,99.48a10.93,10.93,0,0,1-5.59-3.12q-1.72-2,.65-4.4a4.21,4.21,0,0,1,5.37,0m-20.72,34.57q-4,4.3-7.41,7.41a24.91,24.91,0,0,1-6.33,4.4c-1.93.86-3.47.93-4.62.21s-1.43-2.15-.86-4.3a28.84,28.84,0,0,1,3.43-7.41q2.58-4.19,6.34-9.13t7.73-9.45q4-4.51,7.52-8.16a74,74,0,0,1,5.9-5.58A6.67,6.67,0,0,0,439,98.61a17.55,17.55,0,0,0,5.15,2.79q-1.29,2.37-3,4.94t-3.33,4.83q-1.61,2.25-3,4t-2,2.36q-4.08,4.73-8.05,9M405.63,116a42.1,42.1,0,0,0-4.08,10.84,18.26,18.26,0,0,0,0,8.37,8.21,8.21,0,0,0,3.33,5q3,1.93,7.73,1.18a32.49,32.49,0,0,0,9.88-3.43,52.43,52.43,0,0,0,10.2-7.09,57.34,57.34,0,0,0,8.91-9.77q7.3-10.52,8.59-18.68a37.7,37.7,0,0,0,12.13-1.18,25.07,25.07,0,0,0,10.84-5.69c.71-.71,1.29-1.32,1.72-1.83s.21-1-.65-1.61A25.57,25.57,0,0,1,462.54,99a36.71,36.71,0,0,1-12.13,1.29,11.36,11.36,0,0,0,.11-2.68q-.11-1.39-.32-2.69a8,8,0,0,0-2.58-4.61q-1.94-1.61-5.59-1.18,1.72-1.07,3.33-1.93a20,20,0,0,1,2.9-1.29q1.71-.43,1.29-1.07a1.68,1.68,0,0,0-1.5-.64,35.9,35.9,0,0,0-17.82,5.9,78.36,78.36,0,0,0-15.68,13.21A65.72,65.72,0,0,0,405.63,116m-34-39.62q6.87-7.62,15.68-16L390.07,58c.72-.43,1-.82,1-1.18s-.54-.54-1.4-.54a40.6,40.6,0,0,0-4.94.43q-3.22.43-9.45,5.37A138.1,138.1,0,0,0,362.58,74q-7.09,7.41-14.28,16t-13.74,17.18q-6.56,8.59-10.84,15.46a29.66,29.66,0,0,0-2.79,6.87,7.69,7.69,0,0,0,1.07,6.87q.43,1.93,1.72.22,3.65-5.37,6.76-9.55T336.6,119q3-3.86,6.23-7.84t7.09-8.91a34.77,34.77,0,0,1,5.9-5.8,32.73,32.73,0,0,1,5.9-3.65,22.79,22.79,0,0,1,4.94-1.72c1.43-.28,2.36-.22,2.79.21.57.72.57,1.83,0,3.33a25.11,25.11,0,0,1-3.33,5.59q-2.47,3.33-6,7.3t-8.05,8.27a47.63,47.63,0,0,0-7.62,9.55,36.86,36.86,0,0,0-3.76,8.48,17.76,17.76,0,0,0-.75,6.66,6.55,6.55,0,0,0,1.4,3.86q1.93,2.79,5.69,2a25.87,25.87,0,0,0,8.48-3.76,88.6,88.6,0,0,0,10-7.51q5.26-4.51,10-9.13t8.59-8.81q3.86-4.18,5.8-6.33,1.29-1.71.54-2.36c-.5-.43-1-.36-1.4.21q-3.22,3.22-9,9.34t-12.24,12a117.76,117.76,0,0,1-12.67,10.2q-6.23,4.29-10.09,4.3-1.72-.64.22-3.87a63.93,63.93,0,0,1,5.15-7.19q3.22-4,6.77-7.62t4.83-5.15a79.05,79.05,0,0,0,6-6.87,48.57,48.57,0,0,0,5.37-8.37,22.5,22.5,0,0,0,2.47-8.16,7.49,7.49,0,0,0-2.47-6.44,8.46,8.46,0,0,0-8.37-1.61,19.48,19.48,0,0,0-8.16,4.4Q364.73,84,371.6,76.39m-39.73,37c1.15-1.14,2.08-2.15,2.79-3,1-1.15,1.18-1.86.54-2.15a1.54,1.54,0,0,0-1.83.43l-6.44,6.66q-2.79,2.79-7.09,6.34a96.06,96.06,0,0,1-9.13,6.66,58.55,58.55,0,0,1-9.55,5,17.06,17.06,0,0,1-8.37,1.5q-3-.43-3.54-2.36a6.21,6.21,0,0,1,.54-4.3,42.78,42.78,0,0,1,4.08-8.16,111.76,111.76,0,0,1,8.59-11.81q2.58-3.22,6.34-7.3t7.95-7.84a93.45,93.45,0,0,1,7.94-6.44Q328.44,84,331,83.8a2.24,2.24,0,0,1,2.68,1.83q.54,2-3.76,6.76-.86,1.08,2.15.64a4.4,4.4,0,0,0,3.11-1.72A6.54,6.54,0,0,0,336.6,88a6.22,6.22,0,0,0-.64-3.54,4.67,4.67,0,0,0-3-2.36,14.92,14.92,0,0,0-8.7,0,45.86,45.86,0,0,0-10,4.08,62.79,62.79,0,0,0-9.88,6.66,61.51,61.51,0,0,0-8.16,7.95A52.42,52.42,0,0,0,288,113.11a39,39,0,0,0-3.33,10.52,15.34,15.34,0,0,0,.64,7.84,7.41,7.41,0,0,0,3.65,4.3,13.56,13.56,0,0,0,9.45.54,44.77,44.77,0,0,0,10.84-4.51,78.26,78.26,0,0,0,10.52-7.19,111.12,111.12,0,0,0,8.7-7.73l3.43-3.44m-39-5a1.13,1.13,0,0,0-1.61.32l-11.38,12.24q-3,3.22-7.3,7.3a89,89,0,0,1-8.7,7.3,38,38,0,0,1-8.16,4.72q-3.76,1.5-5.9-.22-.64-1.93,2.25-4.94t7.09-7q4.19-4,8.8-8.7a45.76,45.76,0,0,0,7.62-10.31,22.27,22.27,0,0,0,2.79-8.37,35.05,35.05,0,0,0,0-7.73,42.82,42.82,0,0,0-1.29-6.66q-.86-3-1.29-4.94a67.78,67.78,0,0,1,4.61-5.15,80.84,80.84,0,0,0,5.48-6.23,25.34,25.34,0,0,0,3.22-4.94q.86-1.93-1.72-1.5a13.3,13.3,0,0,0-5.8,3,29.92,29.92,0,0,0-4.83,5.15,25.1,25.1,0,0,0-3.11,5.48q-1.08,2.69-.65,4-5.37,6.23-12.24,13.85t-13.1,14.49q-1.5,1.51-.32,1.83a1.76,1.76,0,0,0,1.83-.32q4.94-5.37,11.38-12.67t13.31-15a15,15,0,0,1,.75,6.34,19.81,19.81,0,0,1-2.15,6.76,43.11,43.11,0,0,1-5.37,7.95,118.19,118.19,0,0,1-9.13,9.66,52.44,52.44,0,0,0-9.13,11,25.17,25.17,0,0,0-3.22,8.05,8.51,8.51,0,0,0,.54,5.37,9.08,9.08,0,0,0,2.15,2.9,7.43,7.43,0,0,0,6.23,1.18,24.69,24.69,0,0,0,7.73-3.22,55.89,55.89,0,0,0,8.37-6.33q4.3-3.86,8.38-7.95t7.51-7.95q3.43-3.86,6-6.66,1.29-1.5.32-2M216,140.49a76.61,76.61,0,0,0,12.56-9q6.44-5.58,12.35-11.7t9.34-10q1.29-1.71.32-2.15a1.22,1.22,0,0,0-1.61.43q-3.22,3.44-8.59,9t-11.27,10.84a112.65,112.65,0,0,1-11.6,9.13q-5.69,3.86-9.55,3.87-1.08,0-.64-1.61a15.51,15.51,0,0,1,1.51-3.54q2.14-3.43,6-9t8.59-11.81q4.72-6.23,9.88-12.35T243,91.74q1.08-1.07,2.15-2.25T244,88.31a30.85,30.85,0,0,0-7,.64,16.94,16.94,0,0,0-6.33,3.65,92,92,0,0,0-15,15.68,108.78,108.78,0,0,1-9.23,9.77A107.12,107.12,0,0,1,197,126a49.92,49.92,0,0,1-8.16,5q-3.65,1.72-5.59.64-.86-.43.86-3.43t4.72-7.41q3-4.39,7.08-9.45t7.95-9.55q6.23-7.09,10.73-11.27t5.16-4.4q1.29-.43,1.29-1.29c0-.57-.43-.86-1.29-.86a30.69,30.69,0,0,0-5.16,0,19.2,19.2,0,0,0-3.65.86,18.19,18.19,0,0,0-4.4,2.36,57.94,57.94,0,0,0-4.94,3.87q-2.47,2.15-4.62,4.29T193.59,99a74.18,74.18,0,0,0-10.2,13.53A40.07,40.07,0,0,0,179.09,123a15,15,0,0,0-.22,7.09c.5,1.79,1.32,2.9,2.47,3.33a9.68,9.68,0,0,0,6.23.11,28,28,0,0,0,7.08-3.22,59.74,59.74,0,0,0,7.3-5.37q3.65-3.11,7.08-6.55a47.94,47.94,0,0,0-5.37,11.16,24.57,24.57,0,0,0-1.18,7.3,6.76,6.76,0,0,0,1.29,4.19,4.27,4.27,0,0,0,2.25,1.61q3.86,1.29,10-2.14m-46.27-64.1q6.87-7.62,15.68-16L188.22,58c.71-.43,1-.82,1-1.18s-.54-.54-1.4-.54a40.6,40.6,0,0,0-4.94.43q-3.22.43-9.45,5.37A138.1,138.1,0,0,0,160.74,74q-7.09,7.41-14.28,16t-13.74,17.18q-6.56,8.59-10.84,15.46a29.81,29.81,0,0,0-2.79,6.87,7.7,7.7,0,0,0,1.07,6.87c.28,1.29.86,1.36,1.72.22q3.65-5.37,6.77-9.55t6.12-8.06q3-3.86,6.23-7.84t7.08-8.91a34.77,34.77,0,0,1,5.9-5.8,32.63,32.63,0,0,1,5.91-3.65,22.77,22.77,0,0,1,4.94-1.72c1.43-.28,2.36-.22,2.79.21.57.72.57,1.83,0,3.33a25.07,25.07,0,0,1-3.33,5.59q-2.48,3.33-6,7.3t-8.05,8.27a47.75,47.75,0,0,0-7.62,9.55,36.69,36.69,0,0,0-3.76,8.48,17.62,17.62,0,0,0-.75,6.66,6.52,6.52,0,0,0,1.39,3.86q1.93,2.79,5.69,2a25.83,25.83,0,0,0,8.48-3.76,88.6,88.6,0,0,0,10-7.51q5.26-4.51,10-9.13t8.59-8.81q3.86-4.18,5.8-6.33,1.29-1.71.54-2.36c-.5-.43-1-.36-1.39.21q-3.22,3.22-9,9.34t-12.24,12a117.76,117.76,0,0,1-12.67,10.2q-6.23,4.29-10.09,4.3-1.72-.64.22-3.87a64.37,64.37,0,0,1,5.15-7.19q3.22-4,6.77-7.62t4.83-5.15a79.05,79.05,0,0,0,6-6.87,48.37,48.37,0,0,0,5.37-8.37,22.5,22.5,0,0,0,2.47-8.16,7.49,7.49,0,0,0-2.47-6.44,8.46,8.46,0,0,0-8.37-1.61,19.48,19.48,0,0,0-8.16,4.4q7.94-9.66,14.82-17.29M106,44.93a152.1,152.1,0,0,1,25.45-16.64q12.13-6.12,22.44-7.62T171.69,23a8.74,8.74,0,0,1,2.79,2.79,10.05,10.05,0,0,1,0,7.62,33.23,33.23,0,0,1-5,8.8A82.37,82.37,0,0,1,161,51.59a134.94,134.94,0,0,1-10.31,8.91q-5.37,4.19-10.74,7.62t-9.45,5.59q-18.9,9.88-36,13.21T63.68,89a130.12,130.12,0,0,1,7.73-10.63q4.08-5,7.95-9.13A272.57,272.57,0,0,1,106,44.93m37,25.23a144.44,144.44,0,0,0,11.6-8.7,115.83,115.83,0,0,0,10.52-9.88,65.06,65.06,0,0,0,7.95-10.2,31,31,0,0,0,4.08-9.45,9.62,9.62,0,0,0-1.4-7.84q-3.65-5.15-14.28-6t-25.12,3.33A146.27,146.27,0,0,0,73.55,60.18,158.12,158.12,0,0,0,62.49,73a120.52,120.52,0,0,0-9.55,14.28q-12.24-3-19.54-9T24.81,64.69a20.84,20.84,0,0,1,.11-7.62,15.57,15.57,0,0,1,2.9-6.55,14.57,14.57,0,0,1,5.26-4.3,12.53,12.53,0,0,1,7.41-.86q-.22-1.08-2.36-1.72a8.75,8.75,0,0,0-6.12.54,15.4,15.4,0,0,0-5.58,4.41,20.71,20.71,0,0,0-4.19,16.75q1.29,7.95,9,14.5t20.4,9.77q-2.37,4.3-4.3,8.8a58.27,58.27,0,0,0-3,8.8,71.74,71.74,0,0,0-2.58,14.92,46.88,46.88,0,0,0,.86,13,29.2,29.2,0,0,0,4.08,10,16.59,16.59,0,0,0,7.08,6.12A29.58,29.58,0,0,0,71,152.62a69.72,69.72,0,0,0,18.25-6.44,109.12,109.12,0,0,0,17.07-10.84,141.05,141.05,0,0,0,13.42-11.6q4.08-3.86,7.62-7.62t5.69-6.34q1.29-1.5.32-1.93a1.22,1.22,0,0,0-1.61.43q-2.37,2.37-5.9,6T118,122a146.1,146.1,0,0,1-14.5,12.13,115.5,115.5,0,0,1-17.07,10.52,63.7,63.7,0,0,1-17.18,5.9q-8.37,1.5-14.82-1.72a14.42,14.42,0,0,1-7.84-9.34,31,31,0,0,1,0-14.07,73.1,73.1,0,0,1,5.8-16.75A155.14,155.14,0,0,1,62,91.53q14.38,1.72,32.21-1.4T132,76.71A100.67,100.67,0,0,0,143,70.16" transform="translate(-21.89 -10.12)" style="fill: #ffffff"/>
  </g>
</svg>
